<?xml version="1.0" standalone="no"?>
<!DOCTYPE svg PUBLIC "-//W3C//DTD SVG 20010904//EN"
 "http://www.w3.org/TR/2001/REC-SVG-20010904/DTD/svg10.dtd">
<svg version="1.0" xmlns="http://www.w3.org/2000/svg"
 width="1280.000000pt" height="1037.000000pt" viewBox="0 0 1280.000000 1037.000000"
 preserveAspectRatio="xMidYMid meet">

<g transform="translate(0.000000,1037.000000) scale(0.100000,-0.100000)"
fill="#000000" stroke="none">
<path d="M2 5308 l3 -5063 6398 -3 6397 -2 0 5065 0 5065 -6400 0 -6400 0 2
-5062z m7926 3651 c141 -37 269 -118 321 -203 52 -83 46 -205 -15 -334 -34
-71 -36 -92 -10 -92 19 0 72 114 91 191 18 80 19 110 1 178 l-14 53 47 -7
c172 -24 280 -175 282 -395 2 -172 -89 -324 -220 -368 -52 -18 -52 -12 4 64 6
9 6 17 -2 25 -10 10 -17 8 -34 -7 -56 -50 -85 -174 -74 -312 8 -99 1 -111 -80
-141 -87 -33 -210 -51 -387 -58 l-167 -6 -33 25 c-73 55 -90 60 -219 54 -65
-2 -121 -1 -123 2 -2 4 3 50 11 102 14 90 15 292 2 304 -3 4 -14 4 -23 0 -14
-5 -16 -15 -10 -50 8 -53 7 -53 -113 -24 -165 39 -285 126 -346 249 -31 63
-32 70 -32 191 0 114 2 130 26 180 29 61 80 118 140 155 57 36 176 74 259 81
l72 7 -25 -49 c-86 -170 -41 -370 120 -531 87 -87 183 -132 183 -85 0 11 -16
24 -47 36 -70 29 -162 127 -209 221 -34 70 -39 89 -42 164 -3 69 0 97 18 143
38 102 147 198 270 237 107 34 252 34 378 0z m-826 -1030 c31 -10 82 -22 112
-25 31 -4 59 -11 62 -16 3 -4 2 -33 -2 -64 -5 -45 -14 -64 -44 -99 l-38 -44
-11 42 c-23 94 -91 164 -184 192 l-41 12 29 16 c17 9 37 14 45 11 8 -3 40 -14
72 -25z m1587 -27 c-65 -42 -157 -147 -215 -245 l-50 -87 -34 35 c-57 58 -50
83 50 179 97 93 188 146 254 146 l40 0 -45 -28z m127 -49 c26 -53 31 -191 10
-274 -9 -35 -30 -86 -45 -114 -28 -48 -31 -50 -69 -48 -22 1 -59 7 -83 14
l-44 12 35 9 c45 12 62 28 30 28 -37 0 -70 11 -70 22 0 6 7 7 16 4 8 -3 12 -2
9 4 -4 6 6 10 22 10 54 0 55 16 1 30 -50 12 -51 14 -28 24 14 6 27 13 30 16
16 17 91 60 85 48 -4 -7 3 -2 14 12 34 41 23 49 -29 20 -23 -12 -24 -12 -11 4
12 14 12 16 -3 10 -9 -3 -16 -9 -16 -13 0 -9 -51 -33 -57 -27 -2 2 10 14 27
26 48 34 80 66 80 79 0 7 -4 10 -9 7 -5 -4 -16 -3 -25 0 -13 5 -14 9 -5 20 6
8 8 14 3 14 -5 0 -3 4 5 9 9 6 10 11 2 15 -6 4 -11 2 -11 -4 0 -6 -4 -8 -10
-5 -5 3 -10 1 -10 -5 0 -6 -5 -8 -12 -4 -7 4 -8 3 -4 -4 4 -6 14 -8 23 -5 12
5 14 3 7 -8 -15 -24 -13 -38 4 -32 14 4 13 1 -2 -11 -20 -16 -41 -12 -30 6 4
6 3 8 -2 5 -6 -3 -15 2 -21 12 -10 15 -8 22 10 39 35 32 119 82 128 76 5 -3 9
0 9 5 0 25 29 8 46 -26z m-1821 7 c4 -6 11 -7 17 -4 6 4 8 3 5 -2 -3 -6 4 -16
16 -24 21 -12 21 -12 7 5 -14 17 -14 17 7 7 33 -18 38 -33 18 -49 -17 -12 -17
-13 -2 -13 9 0 17 5 17 10 0 21 16 8 32 -25 15 -29 15 -35 3 -35 -7 0 -17 5
-21 12 -4 7 -3 8 4 4 17 -10 15 -1 -4 14 -12 11 -15 11 -12 -1 2 -9 -4 -13
-17 -11 -11 2 -26 4 -33 4 -6 1 -11 6 -10 12 2 6 -2 11 -7 11 -6 0 -9 -3 -7
-7 3 -10 -12 -10 -21 -1 -4 3 1 15 10 27 18 20 18 20 -8 0 -15 -10 -24 -21
-20 -24 3 -3 17 -18 30 -33 l24 -27 -22 0 c-12 0 -20 4 -17 8 2 4 -4 9 -15 9
-17 2 -18 0 -4 -13 8 -9 13 -20 9 -25 -3 -5 -2 -8 3 -7 4 1 26 -7 47 -19 39
-20 40 -21 18 -34 -26 -16 -29 -31 -5 -22 12 5 14 3 8 -8 -6 -11 -5 -12 6 -1
14 13 39 16 39 5 0 -21 -182 -104 -197 -90 -1 2 -6 48 -9 103 -7 105 7 212 29
226 6 4 8 8 4 8 -5 0 -5 5 -2 10 8 13 72 13 80 0z m1633 -125 c6 -13 7 -27 3
-30 -12 -7 -33 20 -23 30 4 5 1 5 -6 1 -10 -6 -10 -11 -1 -22 10 -12 8 -18 -7
-29 -10 -8 -24 -15 -30 -15 -7 0 -14 -7 -18 -15 -3 -8 -10 -15 -16 -15 -6 0
-5 7 2 20 7 11 19 20 26 20 7 0 10 5 7 10 -7 11 31 70 44 70 4 0 13 -11 19
-25z m-1492 -47 c8 -27 1 -31 -38 -22 l-33 7 28 9 c23 8 26 13 16 24 -10 12
-9 13 4 8 9 -3 19 -15 23 -26z m-6 -63 c-7 -9 -15 -13 -19 -10 -3 3 1 10 9 15
21 14 24 12 10 -5z m1401 -21 c-9 -12 -19 -20 -23 -17 -4 2 -5 -3 -2 -11 3 -9
10 -16 16 -16 5 0 7 -4 4 -9 -4 -5 3 -7 14 -4 11 3 20 0 20 -6 0 -5 7 -8 15
-5 8 4 15 3 15 0 0 -11 -51 -26 -63 -19 -7 4 -18 8 -26 10 -29 4 -33 21 -13
60 13 25 27 39 40 39 19 0 19 -2 3 -22z m-441 -120 c49 -44 103 -151 129 -254
20 -80 41 -229 41 -296 0 -32 9 -52 44 -100 74 -99 96 -149 96 -215 0 -33 -3
-59 -7 -59 -3 0 -19 15 -34 33 l-28 32 -1 -41 c-1 -96 -112 -242 -243 -318
-129 -76 -198 -137 -262 -230 -36 -54 -79 -102 -107 -123 l-48 -35 0 29 c-1
15 -7 42 -14 58 l-13 30 -30 -66 c-34 -74 -49 -89 -58 -59 -6 18 -50 60 -64
60 -4 0 -5 -31 -3 -70 6 -98 -4 -117 -29 -60 -22 49 -77 112 -91 104 -4 -3 -8
-21 -8 -40 0 -40 -6 -41 -41 -11 -46 38 -69 87 -69 147 -1 63 -10 54 -31 -28
-14 -57 -27 -50 -28 17 -1 33 -1 33 -26 17 -34 -22 -34 -21 -19 22 7 20 13 51
14 68 0 29 6 35 80 73 43 23 98 48 120 56 40 14 43 14 109 -19 99 -50 172 -69
252 -64 111 6 176 65 215 196 8 29 19 50 23 47 5 -2 16 4 26 15 17 19 17 20
-8 31 -39 18 -61 -1 -80 -71 -37 -131 -107 -188 -221 -177 -65 6 -147 34 -203
69 -31 18 -33 23 -33 77 0 31 6 64 13 72 26 33 115 98 140 104 34 9 34 1 1
-42 l-25 -33 43 6 c100 16 156 71 143 143 -3 20 -7 61 -8 91 -2 48 -5 55 -22
55 -16 0 -21 -8 -25 -40 -5 -38 -7 -40 -55 -53 -97 -24 -257 -36 -330 -24 -37
6 -69 13 -72 16 -3 2 23 48 57 102 58 92 60 99 43 112 -16 11 -21 10 -41 -15
-21 -25 -47 -68 -77 -124 -5 -11 -15 -17 -22 -15 -7 3 -10 -1 -6 -10 3 -8 -7
-31 -23 -51 -15 -20 -22 -33 -16 -29 8 5 12 -2 12 -20 0 -25 60 -137 80 -149
5 -3 7 16 3 46 l-6 51 29 -15 c16 -8 50 -34 77 -57 38 -34 47 -48 47 -75 0
-52 -11 -95 -25 -95 -7 0 -65 -27 -129 -59 l-117 -59 -25 37 c-49 74 -44 128
22 227 28 43 34 58 25 67 -14 14 -36 -11 -78 -90 -16 -29 -30 -53 -33 -52 -3
0 -41 43 -84 96 -74 89 -81 94 -94 77 -13 -17 -14 -15 -7 21 4 21 16 57 27 78
24 47 20 54 -17 26 l-27 -22 17 34 c33 64 103 154 171 220 l69 66 -3 62 c-8
140 39 280 124 371 26 27 50 50 55 50 4 0 11 -10 14 -22 4 -13 21 -52 37 -87
30 -64 47 -69 48 -13 0 12 5 22 11 22 5 0 7 5 4 11 -4 6 1 17 11 25 11 9 13
13 7 9 -18 -9 -16 6 3 34 21 29 20 31 75 -133 37 -112 44 -126 52 -105 5 13 9
66 8 117 -2 63 1 92 9 92 6 0 9 -4 5 -9 -3 -6 3 -15 15 -21 11 -6 26 -22 33
-36 l13 -25 35 43 c55 69 111 128 140 149 25 18 96 29 236 38 14 0 40 -14 63
-35z m554 -128 l40 -12 -38 -23 c-20 -13 -41 -20 -44 -15 -4 5 -21 24 -37 43
l-30 33 35 -7 c19 -4 53 -13 74 -19z m-5605 -1199 c13 -16 46 -440 36 -465
-10 -26 -39 53 -92 253 l-46 169 34 28 c37 31 51 34 68 15z m3564 2 c40 -6 74
-13 75 -14 9 -9 -66 -131 -120 -194 -32 -39 -56 -71 -53 -71 11 0 162 116 214
165 63 59 63 50 1 -83 -54 -115 -89 -162 -165 -222 -61 -49 -209 -140 -227
-140 -5 0 -8 18 -8 40 0 32 -4 40 -19 40 -15 0 -19 -11 -25 -61 -3 -34 -6 -76
-6 -93 0 -25 -13 -43 -66 -95 -111 -109 -251 -331 -307 -486 -6 -18 -11 -126
-11 -265 -1 -231 -2 -238 -39 -417 -20 -100 -37 -194 -37 -208 0 -14 -6 -28
-14 -31 -14 -5 -156 54 -156 65 0 4 20 21 44 38 102 72 193 324 166 462 -27
144 -126 273 -330 431 l-32 25 46 331 c25 182 46 335 46 340 0 5 -190 9 -467
9 -258 0 -485 4 -505 8 l-38 8 0 53 c0 49 2 54 25 58 14 3 25 2 25 -3 0 -9
301 -13 605 -8 105 1 220 2 257 2 37 0 66 3 63 6 -2 4 6 6 18 5 12 -1 30 -3
40 -3 11 -1 17 -9 17 -26 0 -24 4 -22 73 34 96 78 132 97 337 182 242 99 269
110 315 119 60 12 177 11 258 -1z m-3373 -6 c0 -5 -7 -29 -15 -56 -17 -55 -55
-299 -55 -351 0 -38 -8 -44 -28 -24 -17 17 -15 48 9 227 19 138 24 159 47 184
25 26 42 34 42 20z m265 -110 c-13 -32 -34 -105 -46 -163 -13 -58 -24 -107
-26 -109 -2 -3 -12 4 -22 15 -18 19 -18 22 13 148 27 111 36 132 61 152 16 12
32 21 36 19 4 -3 -4 -31 -16 -62z m-626 11 c4 -5 20 -43 36 -84 15 -41 36 -96
46 -121 l17 -46 -56 9 c-31 5 -59 13 -60 19 -2 5 -25 53 -51 107 -38 76 -46
102 -39 118 8 18 15 20 54 14 25 -4 48 -11 53 -16z m487 -5 c32 -34 32 -40 3
-141 -18 -62 -21 -67 -39 -56 -15 10 -25 7 -58 -14 l-40 -27 19 82 c10 45 22
99 25 120 6 32 34 67 54 67 4 0 19 -14 36 -31z m364 -19 c12 -22 -2 -209 -21
-293 -11 -49 -12 -49 -31 -29 -19 19 -19 22 -4 73 13 47 13 55 0 62 -11 6 -14
28 -13 98 1 83 3 91 23 99 31 13 34 12 46 -10z m191 -41 c9 -17 4 -40 -26
-128 -46 -130 -59 -146 -103 -130 -18 6 -32 14 -32 17 0 4 12 59 27 123 l26
117 41 10 c23 5 44 10 48 11 4 0 12 -8 19 -20z m-326 -94 c-10 -37 -28 -79
-41 -95 -19 -22 -24 -40 -24 -84 0 -51 -2 -56 -18 -47 -11 6 -24 6 -35 -1 -17
-9 -18 -6 -11 27 4 21 21 92 39 158 37 135 55 161 89 128 19 -19 19 -21 1 -86z
m1922 -31 c-3 -3 -12 -4 -19 -1 -8 3 -5 6 6 6 11 1 17 -2 13 -5z m-120 -10
c-3 -3 -12 -4 -19 -1 -8 3 -5 6 6 6 11 1 17 -2 13 -5z m-2050 -76 c18 -18 33
-37 33 -44 0 -7 -18 -89 -41 -183 -39 -163 -42 -171 -63 -165 -11 4 -24 12
-28 18 -23 34 13 372 41 393 22 17 21 17 58 -19z m276 -25 c-3 -36 -11 -63
-22 -71 -14 -11 -17 -8 -24 24 -6 30 -3 43 15 71 13 18 26 33 30 33 4 0 4 -26
1 -57z m5034 13 c57 -27 99 -74 199 -226 77 -118 162 -279 249 -475 72 -160
69 -145 39 -235 -3 -8 5 1 17 19 l23 35 27 -85 c56 -174 59 -285 13 -514 -34
-177 -69 -287 -125 -404 -47 -97 -60 -114 -173 -227 -107 -107 -130 -136 -181
-231 -94 -172 -129 -203 -435 -395 -174 -110 -302 -175 -500 -255 -47 -19
-114 -50 -149 -69 -83 -46 -448 -307 -537 -385 -104 -90 -163 -121 -244 -127
-92 -6 -122 10 -251 139 -63 64 -127 118 -156 132 -26 14 -126 53 -222 86
-200 71 -222 81 -276 129 -60 54 -204 209 -346 376 l-128 149 20 29 c70 98
347 360 489 461 88 64 223 137 251 137 9 0 140 -61 293 -135 230 -112 284
-135 322 -135 38 0 46 -3 54 -25 11 -30 40 -33 47 -5 6 21 36 35 53 25 6 -4
18 -1 26 6 13 10 13 14 -2 30 -22 24 -12 47 23 54 46 10 56 19 68 66 13 53
100 187 175 271 102 115 357 287 545 370 74 32 121 59 143 83 31 34 32 37 32
127 0 108 35 268 76 353 14 29 46 75 70 103 39 45 42 51 28 63 -14 12 -22 8
-58 -32 -95 -105 -156 -289 -156 -471 0 -94 -1 -97 -29 -121 -16 -13 -73 -43
-127 -67 -54 -24 -121 -56 -148 -73 -104 -60 -283 -187 -344 -243 -97 -88
-217 -253 -247 -341 -10 -28 -21 -39 -51 -49 -43 -15 -67 -41 -61 -65 6 -22
-33 -40 -56 -28 -9 5 -33 10 -54 10 -27 1 -107 34 -278 117 -132 64 -242 117
-244 119 -6 4 59 115 91 155 20 25 32 56 39 96 13 82 32 133 73 195 36 53 132
154 140 146 2 -2 11 -20 20 -39 15 -34 15 -29 13 108 -2 166 -3 166 73 -11 29
-67 54 -124 55 -125 2 -2 3 58 2 135 -2 125 0 142 20 179 28 52 87 104 195
171 120 75 121 75 98 16 -22 -59 -34 -176 -22 -217 8 -30 8 -30 31 26 41 102
126 176 301 263 41 21 94 51 118 67 l42 29 0 -138 1 -138 28 76 c60 162 167
324 292 444 60 58 61 59 39 20 -47 -80 -85 -131 -145 -195 -33 -36 -69 -76
-80 -89 -25 -30 150 85 223 147 104 88 211 257 265 415 l22 67 115 -152 c63
-83 120 -158 127 -167 7 -9 -12 45 -42 119 -45 110 -55 146 -55 193 0 63 9 88
48 130 34 35 96 37 169 3z m-5716 -5 c12 -11 131 -352 126 -358 -4 -3 -17 -3
-31 1 -33 8 -86 83 -152 217 -46 93 -54 117 -45 135 8 19 15 22 53 17 24 -3
46 -8 49 -12z m276 -68 c-3 -10 -5 -4 -5 12 0 17 2 24 5 18 2 -7 2 -21 0 -30z
m688 -32 c-14 -28 -31 -77 -39 -109 -10 -47 -18 -60 -44 -75 l-32 -19 0 23 c0
13 16 65 36 117 29 75 43 98 68 113 17 10 32 15 34 10 2 -5 -8 -32 -23 -60z
m-145 -37 c-6 -32 -10 -87 -10 -120 0 -55 -2 -62 -22 -67 -12 -4 -23 -5 -25
-3 -7 6 37 229 48 242 18 22 20 14 9 -52z m-592 13 c19 -21 23 -39 28 -138 5
-103 4 -112 -10 -95 -8 10 -25 62 -36 115 -12 53 -24 106 -27 119 -7 30 17 29
45 -1z m497 -109 c-10 -57 -23 -106 -29 -110 -6 -4 -24 -8 -40 -8 -28 0 -28 0
-22 48 4 26 9 55 12 65 3 10 -1 20 -10 23 -23 9 -22 73 2 80 9 3 31 11 47 19
25 11 32 11 44 0 12 -12 12 -28 -4 -117z m2937 90 c-73 -107 -136 -263 -148
-368 -7 -62 14 -292 26 -285 4 2 10 46 14 97 3 51 12 116 20 143 l13 50 6 -55
c3 -30 11 -103 17 -161 7 -59 22 -154 34 -212 l22 -106 -44 -43 c-24 -24 -58
-63 -77 -88 -48 -66 -154 -253 -182 -323 -17 -42 -46 -84 -93 -134 -38 -41
-74 -87 -82 -103 -11 -26 -17 -30 -41 -24 -18 4 -47 -2 -82 -16 -49 -20 -57
-21 -102 -8 -45 13 -48 16 -45 43 4 54 65 370 73 379 4 4 50 -19 102 -53 95
-62 117 -71 117 -48 0 14 -196 141 -207 134 -5 -3 -8 99 -8 226 1 194 4 240
18 283 21 60 128 250 191 338 43 61 129 151 160 168 11 6 16 23 16 58 l0 50
34 0 c29 0 119 32 236 84 19 8 36 15 38 16 2 0 -10 -19 -26 -42z m-3102 -8 c0
-5 -2 -10 -4 -10 -3 0 -8 5 -11 10 -3 6 -1 10 4 10 6 0 11 -4 11 -10z m-615
-107 c40 -43 72 -79 70 -81 -9 -9 -85 34 -124 71 -26 24 -59 52 -74 61 -39 26
-34 40 14 33 35 -5 51 -16 114 -84z m209 3 c14 -37 26 -73 26 -80 -1 -11 -39
84 -55 134 -15 48 3 15 29 -54z m406 38 c30 -20 39 -32 35 -48 -2 -11 -6 -37
-10 -58 -6 -39 -19 -48 -71 -48 l-34 0 0 72 c0 52 4 76 17 90 20 22 16 23 63
-8z m380 -69 c-54 -65 -343 -125 -594 -125 -193 1 -413 46 -463 96 -36 37 -27
45 11 9 35 -33 90 -52 216 -76 96 -19 423 -16 535 4 189 34 286 78 294 132 l5
30 4 -28 c2 -16 -2 -35 -8 -42z m-500 -65 c0 -11 -4 -20 -9 -20 -5 0 -7 9 -4
20 3 11 7 20 9 20 2 0 4 -9 4 -20z m449 -50 c-152 -114 -219 -244 -219 -424 0
-59 -1 -62 -30 -73 -16 -6 -38 -25 -47 -42 -10 -17 -26 -31 -36 -31 -26 0 -74
-27 -81 -45 -10 -28 -7 -37 30 -72 20 -19 33 -37 29 -41 -13 -12 -264 -2 -343
14 -111 23 -150 45 -158 91 -3 21 -19 106 -35 188 -44 231 -79 431 -79 450 0
12 5 15 18 10 120 -51 465 -71 687 -40 114 16 259 55 280 76 7 7 11 3 14 -13
2 -16 -6 -30 -30 -48z m572 39 c145 -40 251 -121 312 -237 47 -90 75 -215 68
-304 -2 -25 -96 -67 -202 -88 -124 -26 -388 -44 -519 -36 -182 12 -293 44
-364 106 -36 32 -36 33 -36 109 0 164 63 280 204 372 157 103 346 131 537 78z
m469 -586 c36 -32 37 -37 6 -51 -20 -9 -29 -7 -55 12 l-30 22 22 22 c12 12 23
22 24 22 2 0 17 -12 33 -27z m-1280 -98 c149 -100 549 -158 709 -102 34 12 56
13 100 6 31 -5 91 -9 134 -9 l77 0 0 -35 c0 -41 -18 -46 -57 -15 -37 29 -87
26 -112 -6 -12 -15 -21 -33 -21 -40 0 -7 -9 -18 -20 -24 -25 -14 -84 10 -100
40 -15 27 -54 42 -82 31 -13 -5 -38 -23 -57 -40 -40 -36 -52 -38 -76 -11 -23
25 -96 36 -135 20 -16 -7 -36 -23 -45 -36 -21 -33 -32 -30 -49 11 -17 40 -47
51 -101 36 -26 -7 -44 -7 -58 0 -14 8 -27 8 -45 0 -27 -13 -36 -8 -38 17 -1
10 -2 25 -3 34 0 11 -15 21 -41 28 -42 11 -47 19 -29 37 8 8 1 17 -29 32 -53
27 -58 37 -25 49 42 16 47 15 103 -23z m3063 -142 l35 -101 -59 -61 c-104
-106 -169 -229 -169 -317 0 -21 -14 -53 -44 -95 -24 -35 -53 -83 -65 -106 -12
-24 -24 -43 -26 -43 -3 0 -10 12 -15 26 -8 20 -6 31 10 51 22 28 26 73 10 104
-18 33 -72 25 -109 -16 -17 -20 -31 -42 -31 -51 0 -12 -3 -12 -25 2 -24 16
-24 17 -8 47 9 18 44 61 78 97 48 51 75 93 127 200 37 74 89 169 116 210 52
77 128 167 137 159 2 -3 20 -50 38 -106z m-1793 77 c0 -5 -10 -10 -22 -10 -19
0 -20 2 -8 10 19 13 30 13 30 0z m-57 -30 c-6 -21 -28 -27 -38 -10 -3 6 4 14
17 19 13 6 24 10 25 10 0 1 -1 -8 -4 -19z m-57 -58 c16 -11 24 -53 14 -73 -18
-33 -231 -109 -374 -134 -98 -17 -206 -20 -190 -6 12 12 323 134 341 134 7 0
13 3 13 6 0 3 19 6 42 6 35 0 45 4 53 22 11 26 38 35 56 19 9 -8 10 -8 4 3 -4
8 -2 17 6 22 17 11 21 11 35 1z m-241 -32 c-3 -5 -13 -10 -21 -10 -8 0 -12 5
-9 10 3 6 13 10 21 10 8 0 12 -4 9 -10z m-228 -45 l31 -35 -43 -19 c-114 -50
-105 -51 -213 4 -96 49 -97 50 -59 53 26 2 45 -3 63 -17 41 -32 87 -27 132 14
20 19 42 35 48 35 6 0 24 -16 41 -35z m-460 -16 c8 -40 43 -57 85 -41 28 10
40 7 132 -38 l101 -48 -60 4 c-84 7 -198 32 -270 59 -66 24 -165 73 -165 80 0
2 30 4 66 4 36 -1 68 2 71 5 15 15 34 3 40 -25z m1099 -21 c51 -29 93 -55 93
-58 0 -3 -138 -109 -307 -236 l-308 -231 -399 149 c-220 82 -444 166 -499 187
l-98 37 88 77 89 76 5 -49 c7 -62 26 -82 125 -131 156 -77 374 -110 588 -91
218 20 360 70 458 161 49 44 52 51 57 104 2 31 7 57 9 57 3 0 47 -24 99 -52z
m-1187 -62 c167 -72 338 -102 521 -92 140 7 253 32 395 85 60 23 111 39 113
36 3 -3 -12 -21 -34 -42 -49 -46 -176 -105 -274 -128 -98 -23 -342 -31 -452
-16 -138 20 -311 86 -362 137 -19 19 -22 69 -3 61 6 -3 50 -22 96 -41z m1901
-347 c0 -5 5 -9 11 -9 15 0 228 -84 229 -90 0 -3 -24 -18 -53 -33 -188 -98
-362 -245 -450 -380 l-51 -78 -152 152 c-84 84 -151 156 -148 161 3 5 0 7 -7
6 -6 -2 -13 2 -16 9 -4 10 62 32 109 36 9 1 14 6 11 11 -4 5 3 7 15 4 12 -4
20 -2 17 2 -4 7 67 37 108 46 4 1 9 2 12 3 3 0 6 0 8 -1 2 -2 11 5 21 15 22
21 32 22 44 1 8 -15 10 -15 15 0 4 10 3 15 -3 11 -6 -3 -10 -2 -10 3 0 4 16
16 36 25 19 10 32 12 28 6 -5 -8 -1 -8 13 0 11 6 23 7 27 3 4 -3 4 1 1 10 -7
17 20 32 37 21 7 -4 8 -1 3 7 -6 10 -4 12 8 7 10 -4 16 -2 14 6 -1 6 21 23 48
38 47 25 75 28 75 8z m514 -110 c21 -16 57 -32 78 -35 36 -6 54 -24 24 -24
-32 0 -198 -95 -296 -168 -123 -93 -355 -313 -441 -419 -33 -40 -64 -73 -69
-73 -5 0 -14 18 -20 39 -7 27 -25 52 -53 76 l-42 36 35 66 c107 208 294 362
605 498 61 27 108 42 119 38 11 -3 38 -19 60 -34z m-352 -1126 c122 -132 189
-192 242 -218 l51 -24 -1845 0 c-1437 0 -1841 2 -1825 12 11 6 144 78 295 158
l275 147 1368 1 1367 1 72 -77z m4979 -80 l263 -158 -877 -3 c-482 -1 -1272
-1 -1754 0 l-877 3 50 37 c67 47 181 105 321 162 61 25 142 61 180 80 l68 35
1182 1 1181 0 263 -157z m-6852 -627 c227 -62 361 -241 364 -485 2 -164 -46
-286 -157 -397 -121 -121 -268 -178 -461 -177 -182 0 -337 57 -446 163 -94 92
-141 206 -140 339 1 145 54 279 149 383 92 99 197 157 343 188 61 13 282 4
348 -14z m4038 -283 c-4 -230 -9 -325 -21 -377 -58 -256 -237 -396 -506 -396
-253 0 -420 118 -474 335 -22 90 -38 385 -30 566 l7 159 168 0 169 0 -6 -202
c-8 -263 6 -453 38 -516 67 -135 245 -130 306 8 14 30 16 88 15 383 l-2 347
171 0 170 0 -5 -307z m-3362 170 c94 -70 257 -191 363 -271 l194 -143 -2 193
c-1 106 -2 226 -1 266 l1 72 143 0 c79 0 146 -2 148 -4 2 -3 -1 -87 -7 -188
-7 -101 -20 -339 -30 -530 -14 -269 -21 -348 -31 -348 -16 0 -236 161 -518
378 l-210 162 -3 -265 -2 -264 -148 6 c-81 3 -148 6 -149 7 0 0 12 231 28 511
16 281 29 518 29 528 0 9 6 17 13 17 6 0 89 -57 182 -127z m5241 100 c3 -16
17 -72 30 -125 31 -124 31 -138 0 -138 -82 0 -275 -89 -352 -162 -177 -167
-119 -340 129 -383 l37 -6 0 121 0 120 160 0 160 0 0 -229 0 -230 -57 -13
c-92 -20 -431 -17 -513 6 -156 43 -270 127 -326 241 -39 81 -45 195 -15 293
69 228 292 408 626 507 104 31 113 31 121 -2z m858 11 c3 -9 6 -63 6 -120 l0
-104 -57 0 c-32 0 -102 -3 -155 -7 l-98 -6 0 -95 0 -95 130 7 130 7 0 -119 0
-119 -130 5 -130 5 0 -87 0 -86 68 -2 c37 -1 111 0 165 1 l97 3 0 -79 c0 -44
3 -101 6 -127 l7 -46 -179 0 c-99 0 -249 3 -335 7 l-155 6 0 523 0 524 85 1
c48 1 149 5 226 8 261 14 312 13 319 -5z m-2113 -23 c170 -30 277 -90 299
-171 33 -118 -14 -236 -131 -329 l-48 -38 156 -162 156 -162 -24 -17 c-13 -9
-73 -54 -134 -99 -86 -66 -112 -80 -121 -71 -6 7 -45 63 -86 123 -41 61 -118
173 -170 251 l-96 140 46 35 c56 41 107 113 116 164 5 26 2 46 -11 72 -27 54
-63 76 -132 81 l-60 4 6 -416 6 -416 -166 0 -167 0 0 522 0 521 228 -7 c148
-4 264 -13 333 -25z m2598 19 c306 -24 443 -82 472 -202 29 -121 -14 -217
-145 -324 l-38 -32 151 -155 c83 -85 151 -159 151 -165 0 -10 -258 -207 -264
-201 -2 2 -82 122 -179 266 l-177 261 48 34 c56 41 96 97 112 156 9 37 8 49
-7 79 -26 53 -60 74 -133 80 l-62 6 7 -417 8 -416 -167 0 -166 0 0 474 c0 260
-3 494 -6 520 l-7 46 134 0 c74 0 194 -5 268 -10z m-8882 -395 l-5 -395 164 0
164 0 0 -137 0 -136 -167 6 c-91 4 -240 7 -330 7 l-163 0 0 525 0 525 172 0
171 0 -6 -395z m726 -133 l2 -522 -172 0 -173 0 0 525 0 525 171 -2 171 -3 1
-523z m3292 518 c256 -15 371 -47 448 -123 45 -45 65 -126 47 -183 -16 -47
-71 -108 -128 -141 l-44 -26 47 -18 c115 -44 178 -119 178 -214 0 -197 -301
-335 -730 -335 l-108 0 0 525 0 525 60 0 c33 0 137 -5 230 -10z"/>
<path d="M8760 7815 c0 -8 4 -15 10 -15 5 0 7 7 4 15 -4 8 -8 15 -10 15 -2 0
-4 -7 -4 -15z"/>
<path d="M8741 7804 c0 -11 3 -14 6 -6 3 7 2 16 -1 19 -3 4 -6 -2 -5 -13z"/>
<path d="M8751 7764 c0 -11 3 -14 6 -6 3 7 2 16 -1 19 -3 4 -6 -2 -5 -13z"/>
<path d="M8719 7713 c-13 -16 -12 -17 4 -4 16 13 21 21 13 21 -2 0 -10 -8 -17
-17z"/>
<path d="M8649 7590 c0 -3 -2 -13 -4 -22 -4 -20 10 -24 21 -7 3 6 1 16 -5 22
-6 6 -11 9 -12 7z"/>
<path d="M6969 7853 c-1 -5 -1 -12 0 -17 1 -5 -4 -6 -12 -3 -7 3 -14 -1 -14
-8 0 -10 6 -11 25 -2 13 6 19 13 13 15 -6 2 -9 8 -5 13 3 5 3 9 0 9 -3 0 -7
-3 -7 -7z"/>
<path d="M7040 7766 c0 -2 7 -7 16 -10 8 -3 12 -2 9 4 -6 10 -25 14 -25 6z"/>
<path d="M7000 7656 c0 -2 7 -9 15 -16 9 -7 15 -8 15 -2 0 5 -7 12 -15 16 -8
3 -15 4 -15 2z"/>
<path d="M8487 7549 c7 -7 15 -10 18 -7 3 3 -2 9 -12 12 -14 6 -15 5 -6 -5z"/>
<path d="M7224 7254 c-27 -13 -74 -77 -74 -99 0 -4 20 11 45 34 59 54 103 56
153 9 33 -32 34 -32 27 -8 -13 44 -33 67 -66 74 -43 8 -50 8 -85 -10z"/>
<path d="M7830 7151 c-30 -10 -68 -25 -85 -35 l-30 -17 58 6 c61 7 190 40 216
55 29 17 -101 10 -159 -9z"/>
<path d="M7280 7133 c-13 -15 -12 -16 3 -10 23 9 69 -13 63 -30 -3 -7 -1 -13
3 -13 5 0 12 -8 15 -17 5 -13 0 -11 -18 6 -14 13 -24 27 -22 30 2 3 -15 7 -37
9 -23 1 -51 5 -62 7 -11 3 -15 2 -8 -1 8 -3 -1 -17 -23 -36 -33 -29 -42 -55
-9 -28 13 11 15 8 15 -20 0 -22 9 -41 30 -62 27 -26 36 -30 68 -25 21 4 45 16
56 29 l18 23 18 -23 c19 -23 19 -22 14 43 -5 71 -18 115 -37 127 -21 13 -71 8
-87 -9z m-12 -116 c2 -9 -4 -20 -13 -23 -20 -8 -50 19 -40 36 10 17 49 8 53
-13z"/>
<path d="M7607 7085 c-2 -14 -2 -23 1 -20 3 3 13 -8 23 -23 14 -24 22 -28 48
-24 42 6 49 21 13 28 -17 4 -36 17 -46 35 -21 36 -32 37 -39 4z"/>
<path d="M7872 7102 c-25 -4 -92 -63 -92 -81 0 -13 60 14 72 32 6 10 40 13
113 8 64 -5 72 -1 35 15 -45 19 -99 31 -128 26z"/>
<path d="M7885 7049 c3 -4 -8 -10 -25 -14 -39 -9 -80 -57 -73 -86 l6 -23 8 22
c17 45 99 57 99 15 0 -19 -27 -28 -45 -13 -23 19 -19 -6 5 -30 26 -26 25 -30
-2 -30 -21 -1 -21 -2 -5 -11 43 -25 168 -7 181 26 4 11 0 12 -20 5 -14 -6 -32
-10 -41 -10 -14 0 -13 3 3 21 11 13 19 35 19 59 0 36 2 39 30 42 25 3 21 5
-25 16 -74 16 -121 21 -115 11z"/>
<path d="M7150 6962 c0 -21 43 -61 76 -72 36 -12 109 -5 100 9 -3 5 -27 11
-54 15 -26 3 -64 17 -85 31 -20 14 -37 22 -37 17z"/>
<path d="M7217 6739 c7 -7 15 -10 18 -7 3 3 -2 9 -12 12 -14 6 -15 5 -6 -5z"/>
<path d="M7203 6715 c0 -8 4 -12 9 -9 5 3 6 10 3 15 -9 13 -12 11 -12 -6z"/>
<path d="M7145 6669 c-4 -6 -5 -12 -2 -15 2 -3 7 2 10 11 7 17 1 20 -8 4z"/>
<path d="M7170 6650 c-6 -11 -8 -20 -6 -20 3 0 10 9 16 20 6 11 8 20 6 20 -3
0 -10 -9 -16 -20z"/>
<path d="M6581 3996 c-14 -17 215 -188 298 -221 59 -25 131 -33 131 -16 0 4
-38 21 -85 36 -72 23 -104 42 -209 121 -96 72 -127 90 -135 80z"/>
<path d="M4336 5295 c-19 -29 -21 -46 -4 -42 24 4 51 36 45 51 -9 23 -22 20
-41 -9z m24 -9 c0 -3 -4 -8 -10 -11 -5 -3 -10 -1 -10 4 0 6 5 11 10 11 6 0 10
-2 10 -4z"/>
<path d="M4497 5286 c-3 -8 1 -17 9 -20 8 -3 14 -13 15 -23 0 -16 1 -15 8 2 9
21 -3 55 -18 55 -5 0 -11 -6 -14 -14z"/>
<path d="M4161 5252 c-7 -14 -6 -24 3 -37 12 -17 14 -16 18 14 5 37 -6 50 -21
23z"/>
<path d="M4037 5246 c-3 -8 1 -22 8 -33 14 -17 14 -17 15 5 0 12 0 25 1 29 1
14 -19 14 -24 -1z"/>
<path d="M3941 5232 c-9 -17 -7 -20 14 -18 28 1 31 8 11 25 -12 10 -17 8 -25
-7z"/>
<path d="M4257 5233 c-4 -3 -4 -17 0 -31 4 -17 2 -23 -5 -18 -14 9 -27 -13
-14 -26 13 -13 42 18 42 47 0 24 -12 39 -23 28z"/>
<path d="M3766 5164 c-8 -22 4 -66 18 -61 18 6 20 77 3 77 -8 0 -18 -7 -21
-16z"/>
<path d="M4620 5134 c0 -59 24 -55 28 4 2 33 0 42 -12 42 -12 0 -16 -11 -16
-46z"/>
<path d="M4422 5138 c-7 -7 -12 -18 -12 -26 0 -11 3 -12 14 -3 11 10 17 8 25
-6 10 -17 10 -16 11 3 0 29 -22 48 -38 32z"/>
<path d="M3840 5025 c0 -27 29 -48 49 -35 17 10 4 33 -15 26 -9 -3 -14 2 -14
14 0 11 -4 20 -10 20 -5 0 -10 -11 -10 -25z"/>
<path d="M4327 5044 c-13 -13 -7 -41 13 -59 26 -24 35 -13 24 27 -9 31 -24 44
-37 32z"/>
<path d="M4554 5032 c4 -11 2 -23 -4 -27 -5 -3 -10 -1 -10 4 0 6 -4 11 -10 11
-5 0 -10 -9 -10 -20 0 -24 31 -27 50 -5 14 17 10 47 -9 53 -9 3 -11 -1 -7 -16z"/>
<path d="M4207 5014 c-12 -13 -8 -34 8 -34 9 0 14 -8 12 -19 -3 -27 17 -31 21
-5 3 23 -29 70 -41 58z"/>
<path d="M4026 4984 c-8 -22 -5 -24 22 -17 25 6 25 26 0 31 -9 2 -18 -5 -22
-14z"/>
<path d="M3727 4963 c-11 -11 -8 -40 6 -51 9 -8 12 -3 11 19 -1 32 -7 43 -17
32z"/>
<path d="M4675 4920 c-10 -11 -13 -20 -8 -20 13 0 38 29 31 35 -3 3 -13 -4
-23 -15z"/>
<path d="M3911 4888 c0 -30 1 -31 10 -10 5 14 14 20 20 16 7 -4 10 -1 7 7 -3
8 -12 15 -21 17 -13 3 -17 -4 -16 -30z"/>
<path d="M4470 4906 c0 -9 5 -16 10 -16 14 0 12 -27 -2 -33 -10 -4 -10 -7 -1
-18 17 -18 25 -6 27 38 1 28 -3 38 -16 41 -11 2 -18 -3 -18 -12z"/>
<path d="M4117 4894 c-14 -14 -7 -43 14 -55 26 -14 45 2 34 28 -7 17 -8 17
-15 -2 -8 -20 -11 -17 -22 23 -2 7 -7 10 -11 6z"/>
<path d="M6475 4460 c-61 -25 -94 -111 -56 -149 27 -27 51 -27 86 1 57 44 65
121 16 147 -22 12 -20 12 -46 1z"/>
<path d="M5586 4029 c4 -8 -1 -9 -17 -5 -20 6 -21 5 -6 -4 10 -7 23 -8 33 -2
15 8 15 10 0 15 -11 4 -15 3 -10 -4z"/>
<path d="M5250 3860 c-9 -6 -10 -10 -3 -10 6 0 15 5 18 10 8 12 4 12 -15 0z"/>
<path d="M5169 3823 c-13 -16 -12 -17 4 -4 9 7 17 15 17 17 0 8 -8 3 -21 -13z"/>
<path d="M3655 2034 c-158 -24 -322 -148 -397 -301 -30 -62 -33 -76 -33 -159
0 -85 2 -95 39 -169 88 -179 287 -309 441 -289 154 20 310 142 389 304 29 60
31 73 31 165 -1 120 -22 184 -93 278 -51 67 -148 139 -210 157 -46 13 -128 19
-167 14z m199 -80 c112 -55 204 -181 228 -313 10 -51 9 -70 -6 -123 -38 -136
-138 -258 -263 -319 -122 -61 -243 -42 -376 59 -65 49 -141 152 -162 220 -63
198 103 442 341 501 68 17 175 6 238 -25z"/>
<path d="M3579 1862 c-102 -53 -155 -170 -147 -322 12 -211 133 -316 304 -265
65 19 117 71 145 144 30 77 37 227 15 305 -19 65 -73 132 -123 153 -55 22
-134 17 -194 -15z"/>
<path d="M7764 1763 c-1 -336 -23 -444 -105 -518 -107 -97 -353 -83 -456 26
-71 75 -94 198 -94 497 l0 212 -24 0 c-25 0 -25 -1 -27 -92 -12 -472 40 -655
204 -729 47 -21 68 -24 178 -24 143 0 194 16 263 83 86 83 98 136 104 490 l5
282 -24 0 -24 0 0 -227z"/>
<path d="M5267 1898 c-4 -51 -10 -200 -13 -330 -4 -131 -9 -238 -12 -238 -4 0
-71 49 -546 402 -109 82 -200 147 -201 146 -1 -2 -8 -127 -14 -278 -6 -151
-14 -312 -17 -357 l-6 -83 26 0 c23 0 26 4 26 38 0 92 23 568 29 579 4 7 147
-94 376 -263 l370 -275 6 108 c4 59 10 228 14 376 7 262 7 267 -12 267 -18 0
-21 -9 -26 -92z"/>
<path d="M9609 1916 c-165 -72 -326 -203 -376 -304 -59 -121 -23 -254 99 -368
35 -31 92 -71 128 -88 62 -30 71 -31 190 -31 73 0 143 6 168 13 l43 13 -3 117
c-3 113 -4 117 -25 120 -23 3 -23 2 -23 -101 0 -120 8 -111 -110 -123 -128
-13 -258 33 -348 123 -96 95 -125 205 -82 302 40 87 206 220 357 286 57 25 79
39 81 54 5 28 -9 26 -99 -13z"/>
<path d="M10255 2003 l-60 -4 3 -434 2 -435 145 -2 c279 -4 260 -6 263 20 l3
22 -185 0 -186 0 0 185 0 185 150 0 c143 0 150 1 150 20 0 19 -7 20 -150 20
l-150 0 0 190 0 190 140 1 c77 1 145 3 150 4 6 1 21 3 35 4 18 1 25 7 25 21 0
19 -6 20 -137 18 -76 -1 -165 -3 -198 -5z"/>
<path d="M8150 1612 l0 -422 25 0 25 0 0 396 0 397 108 -6 c125 -7 239 -29
300 -59 119 -57 105 -187 -33 -317 l-64 -60 120 -163 c66 -90 124 -167 128
-171 9 -9 41 1 41 12 0 4 -51 78 -114 164 l-114 155 38 31 c21 16 56 57 78 91
65 96 68 180 9 246 -64 74 -191 112 -404 121 l-143 6 0 -421z"/>
<path d="M10920 1610 l0 -420 25 0 25 0 0 396 0 397 108 -6 c200 -10 335 -56
367 -124 35 -73 -6 -168 -112 -262 l-55 -49 128 -173 c70 -96 128 -175 129
-177 1 -1 9 6 18 16 16 18 11 27 -97 173 l-114 154 68 71 c119 126 132 237 37
321 -70 61 -245 103 -434 103 l-93 0 0 -420z"/>
<path d="M2092 1548 l3 -403 203 -3 202 -2 0 25 0 25 -180 0 -180 0 0 380 0
380 -25 0 -25 0 2 -402z"/>
<path d="M2820 1560 c0 -373 0 -380 20 -380 20 0 20 7 20 380 0 373 0 380 -20
380 -20 0 -20 -7 -20 -380z"/>
<path d="M6147 2023 c-4 -3 -7 -211 -7 -461 l0 -454 148 4 c160 5 210 18 304
77 86 55 130 163 98 241 -22 53 -87 103 -173 133 -15 6 -9 14 35 50 77 62 110
115 116 180 10 123 -83 199 -276 227 -77 11 -235 13 -245 3z m352 -69 c64 -21
115 -69 125 -114 15 -76 -43 -168 -136 -214 -47 -24 -63 -26 -175 -26 l-123 0
0 191 0 191 128 -4 c86 -4 144 -11 181 -24z m8 -435 c43 -14 81 -35 107 -60
38 -35 41 -41 41 -93 0 -52 -3 -58 -45 -101 -76 -78 -183 -115 -332 -115 -94
0 -88 -14 -88 205 l0 194 33 3 c67 6 219 -11 284 -33z"/>
<path d="M6320 1785 c0 -134 0 -135 23 -135 63 0 147 89 147 155 0 64 -62 115
-140 115 l-30 0 0 -135z"/>
<path d="M6320 1359 l0 -141 37 7 c78 14 155 73 169 131 16 65 -73 144 -163
144 l-43 0 0 -141z"/>
</g>
</svg>
