<?xml version="1.0" standalone="no"?>
<!DOCTYPE svg PUBLIC "-//W3C//DTD SVG 20010904//EN"
 "http://www.w3.org/TR/2001/REC-SVG-20010904/DTD/svg10.dtd">
<svg version="1.0" xmlns="http://www.w3.org/2000/svg"
 width="675.000000pt" height="613.000000pt" viewBox="0 0 675.000000 613.000000"
 preserveAspectRatio="xMidYMid meet">

<g transform="translate(0.000000,613.000000) scale(0.100000,-0.100000)"
fill="#000000" stroke="none">
<path d="M0 3065 l0 -3065 3375 0 3375 0 0 3065 0 3065 -962 -1 c-847 0 -957
-2 -911 -14 120 -33 234 -111 276 -189 17 -32 22 -57 21 -116 -1 -64 -6 -86
-37 -152 -30 -66 -33 -79 -21 -89 18 -15 16 -17 55 61 41 83 57 172 42 242 -6
29 -9 55 -7 57 11 12 120 -24 157 -53 89 -68 143 -247 114 -374 -20 -84 -49
-140 -95 -186 -35 -33 -110 -71 -121 -60 -3 2 6 18 18 35 23 31 22 64 -2 57
-19 -7 -56 -66 -69 -112 -6 -23 -12 -92 -12 -154 l-1 -114 -35 -19 c-77 -41
-240 -69 -409 -69 -112 0 -115 1 -165 33 -50 32 -52 32 -164 30 l-114 -2 6 37
c11 69 17 307 8 320 -5 7 -16 10 -24 7 -12 -5 -15 -16 -10 -47 l5 -40 -34 7
c-148 29 -225 62 -293 125 -82 76 -125 200 -112 321 19 182 151 295 370 316
l68 6 -15 -24 c-48 -75 -57 -191 -22 -294 42 -121 168 -259 258 -280 22 -6 27
-4 27 12 0 14 -13 26 -40 38 -53 24 -142 116 -179 184 -108 204 -15 414 214
487 33 10 -388 13 -2247 13 l-2288 1 0 -3065z m4125 2146 c34 -11 82 -22 108
-26 l47 -7 0 -52 c0 -43 -5 -58 -31 -89 l-32 -38 -17 51 c-22 64 -81 127 -135
142 -50 14 -53 17 -35 28 20 13 26 12 95 -9z m1404 -29 c-59 -38 -131 -119
-181 -206 -23 -39 -43 -73 -45 -75 -2 -3 -14 6 -28 19 -18 17 -25 34 -25 61 0
33 8 44 73 106 81 75 164 122 216 123 l35 0 -45 -28z m115 -34 c40 -62 27
-231 -26 -335 -17 -35 -34 -63 -37 -63 -3 0 -22 4 -41 9 -19 5 -48 12 -65 16
l-30 7 40 12 40 12 -49 14 c-39 11 -45 15 -30 21 10 4 34 8 52 8 35 1 36 21 1
21 -10 0 -19 5 -19 10 0 6 -3 9 -7 9 -20 -3 -27 2 -14 10 17 11 43 3 35 -10
-10 -17 3 -9 22 13 10 12 14 18 7 15 -6 -4 -14 -3 -18 3 -5 9 15 15 38 11 5
-1 6 3 3 8 -3 5 6 18 20 29 26 18 26 19 5 25 -13 3 -19 1 -15 -5 4 -6 1 -8 -7
-6 -8 3 -13 11 -11 17 1 7 -2 10 -7 6 -6 -3 -8 -11 -5 -19 3 -8 -8 -16 -30
-23 l-35 -11 51 47 c42 38 50 51 43 67 -4 10 -7 22 -7 27 1 4 -2 7 -8 7 -13 0
-13 -13 1 -27 7 -7 2 -15 -15 -27 -15 -9 -26 -14 -26 -12 0 3 -14 -8 -32 -24
-22 -20 -34 -26 -39 -18 -9 14 18 58 37 59 8 1 23 2 33 3 11 0 22 4 26 7 3 4
-10 5 -30 3 -32 -3 -34 -1 -20 12 8 8 20 12 27 8 8 -5 9 -2 5 10 -4 10 -3 15
3 11 6 -3 10 -1 10 4 0 6 7 11 16 11 8 0 13 4 10 9 -5 8 16 23 36 25 3 1 10 4
14 9 14 13 33 7 48 -15z m-1596 0 c6 -1 12 -5 12 -10 0 -4 4 -8 9 -8 14 0 56
-41 70 -67 10 -19 9 -23 -4 -23 -8 0 -15 4 -15 9 0 5 -9 7 -20 4 -21 -5 -28
11 -10 22 13 8 13 25 -1 25 -5 0 -8 -4 -4 -9 5 -10 -11 -24 -30 -27 -5 0 -17
-2 -25 -3 -10 -1 -5 -10 15 -26 17 -14 24 -25 16 -25 -8 0 -23 8 -33 17 -18
16 -18 16 -12 -3 4 -10 16 -26 27 -36 12 -9 21 -28 22 -44 0 -15 6 -29 14 -32
8 -3 11 0 7 7 -5 7 3 11 21 11 26 0 24 -3 -26 -35 -51 -32 -115 -54 -127 -43
-2 3 -5 58 -5 122 0 141 17 192 60 181 14 -3 32 -6 39 -7z m112 -149 c0 -10
-4 -21 -10 -24 -5 -3 -10 -1 -10 5 0 6 -5 8 -12 4 -7 -4 -8 -3 -4 5 4 6 12 9
17 6 16 -11 9 7 -8 21 -16 12 -16 12 5 7 13 -3 22 -13 22 -24z m1260 -23 c0
-3 -4 -8 -10 -11 -5 -3 -10 -1 -10 4 0 6 5 11 10 11 6 0 10 -2 10 -4z m-1325
-16 c3 -5 2 -10 -4 -10 -5 0 -13 5 -16 10 -3 6 -2 10 4 10 5 0 13 -4 16 -10z
m1292 -38 c-9 -9 -13 -22 -9 -28 8 -12 43 -28 57 -25 6 1 2 -5 -8 -13 -14 -11
-26 -12 -46 -5 -26 9 -39 39 -18 39 6 0 7 3 4 6 -9 9 11 44 25 44 6 0 4 -8 -5
-18z m-469 -69 c-10 -2 -28 -2 -40 0 -13 2 -5 4 17 4 22 1 32 -1 23 -4z m97
-44 c70 -78 115 -215 134 -407 11 -106 14 -116 47 -159 59 -77 84 -136 84
-195 l-1 -53 -20 28 c-24 32 -39 35 -39 7 0 -68 -87 -199 -167 -251 -21 -14
-70 -47 -108 -72 -86 -57 -128 -97 -170 -162 -18 -28 -54 -70 -81 -94 l-48
-45 -10 44 c-6 24 -15 45 -21 46 -5 2 -23 -25 -38 -59 l-29 -62 -14 27 c-12
23 -42 48 -57 48 -2 0 -2 -31 1 -70 5 -80 -6 -90 -33 -31 -21 47 -59 86 -74
76 -6 -3 -11 -20 -11 -36 0 -28 -1 -29 -20 -16 -43 30 -65 71 -70 132 l-5 60
-20 -55 -20 -55 -3 38 c-3 36 -14 47 -27 27 -3 -5 -11 -10 -16 -10 -6 0 -7 5
-4 11 4 5 10 31 13 57 l7 47 98 49 98 48 89 -41 c198 -92 340 -52 387 109 10
33 23 60 29 60 6 0 17 7 24 15 10 12 7 17 -14 26 -22 10 -29 9 -46 -6 -11 -10
-20 -28 -20 -39 0 -36 -46 -122 -78 -145 -62 -44 -165 -35 -284 25 -51 26 -53
30 -39 102 9 44 13 48 94 104 46 32 66 27 37 -9 -11 -14 -18 -28 -16 -31 11
-11 107 22 130 45 29 29 43 82 28 110 -6 11 -8 38 -5 61 5 40 4 42 -21 42 -23
0 -26 -4 -26 -35 0 -32 -3 -35 -40 -45 -105 -28 -309 -35 -347 -12 -8 5 5 35
41 93 51 82 52 87 34 98 -21 13 -31 5 -59 -42 -5 -10 -14 -15 -19 -12 -6 4 -7
-1 -3 -11 5 -13 3 -15 -8 -9 -8 4 -11 5 -7 0 11 -12 -21 -67 -34 -59 -7 5 -9
2 -5 -9 4 -11 -3 -26 -19 -42 -14 -14 -20 -25 -14 -25 5 0 10 -9 10 -20 0 -12
17 -47 38 -78 l37 -57 3 38 c2 20 7 37 12 37 10 0 105 -74 115 -89 3 -6 3 -32
-1 -58 l-6 -49 -113 -53 c-63 -29 -119 -50 -125 -46 -18 11 -40 70 -40 108 0
23 14 55 41 97 30 47 37 66 29 74 -13 13 -49 -26 -75 -81 -9 -18 -20 -33 -24
-33 -4 0 -38 36 -75 80 -37 44 -71 78 -77 75 -15 -10 -10 16 11 64 22 47 20
62 -5 41 -60 -50 60 123 139 200 l56 54 0 76 c0 127 41 237 114 313 l40 41 10
-25 c41 -100 76 -155 76 -118 0 5 4 8 9 5 4 -3 7 9 5 27 -3 20 4 45 17 67 l22
35 33 -105 c18 -58 40 -114 48 -125 14 -18 15 -13 16 67 0 99 11 116 47 73 14
-15 28 -24 32 -19 157 187 130 173 362 193 9 0 33 -18 54 -40z m488 -130 c-37
-25 -47 -24 -63 6 -7 14 -17 25 -22 25 -4 0 -8 4 -8 9 0 5 27 2 61 -7 l60 -15
-28 -18z m-4955 -1031 c6 -7 15 -76 21 -153 6 -77 13 -166 16 -197 3 -32 1
-58 -4 -58 -13 0 -31 49 -77 214 l-42 151 29 28 c33 30 42 33 57 15z m3135 1
c40 -6 73 -12 75 -14 8 -8 -45 -93 -103 -165 -36 -44 -62 -80 -60 -80 8 0 178
130 213 163 17 17 32 27 32 21 0 -5 -23 -55 -51 -111 -39 -79 -63 -114 -105
-152 -47 -43 -210 -151 -228 -151 -3 0 -6 16 -6 35 0 27 -4 35 -19 35 -14 0
-20 -10 -25 -46 -3 -26 -6 -63 -6 -82 0 -30 -9 -44 -59 -92 -68 -65 -160 -202
-229 -339 l-47 -94 -2 -205 c-2 -182 -6 -224 -33 -361 -16 -86 -33 -175 -36
-199 -6 -40 -9 -43 -31 -37 -35 8 -113 46 -113 54 1 3 18 18 40 33 50 35 114
162 137 273 29 146 -10 248 -152 390 -49 50 -106 104 -126 120 l-37 30 43 300
c24 165 42 300 42 301 -1 0 -99 -3 -217 -6 -160 -5 -655 2 -677 9 -8 3 -2 101
6 101 5 0 17 3 27 7 12 4 15 3 10 -5 -6 -9 97 -12 433 -10 460 3 448 4 442
-34 -2 -16 12 -7 61 37 69 61 141 100 347 185 255 104 299 113 454 89z m-2983
-77 c-10 -40 -24 -121 -30 -180 -14 -123 -16 -132 -29 -132 -13 0 -17 45 -9
110 27 230 28 234 54 258 15 13 28 22 29 20 2 -2 -5 -36 -15 -76z m270 26 c0
-2 -9 -25 -19 -53 -16 -43 -40 -131 -57 -212 -3 -15 -9 -20 -19 -17 -20 8 -19
23 11 144 18 73 33 110 48 122 18 15 36 23 36 16z m-574 -40 c14 -11 89 -207
82 -214 -3 -2 -23 -2 -45 2 -38 6 -41 9 -86 100 -54 109 -53 134 5 126 18 -2
38 -9 44 -14z m433 -5 l28 -28 -21 -76 c-18 -66 -23 -75 -37 -66 -12 8 -24 5
-48 -12 -17 -12 -31 -19 -31 -14 0 34 46 201 58 211 20 16 18 16 51 -15z m320
-17 c15 -18 -11 -286 -28 -286 -23 0 -28 24 -16 71 7 27 10 49 5 49 -12 0 -18
153 -7 168 12 16 32 15 46 -2z m143 -154 l-37 -107 -33 2 c-18 0 -36 3 -38 6
-3 2 6 51 18 108 l23 103 40 12 c67 20 70 2 27 -124z m-260 40 c-8 -31 -26
-71 -40 -89 -20 -27 -23 -39 -17 -72 6 -39 6 -40 -24 -39 -17 1 -31 6 -31 12
1 36 61 241 76 257 16 18 19 18 35 3 16 -14 16 -19 1 -72z m3375 -58 c-3 -3
-12 -4 -19 -1 -8 3 -5 6 6 6 11 1 17 -2 13 -5z m-3592 -53 c32 -34 32 -27 -13
-216 -24 -101 -32 -120 -49 -123 -18 -3 -21 4 -27 55 -7 65 18 279 36 300 15
18 21 17 53 -16z m238 -29 c-6 -56 -29 -72 -35 -24 -3 24 28 89 38 79 2 -2 1
-27 -3 -55z m4451 16 c48 -25 70 -49 154 -173 71 -104 166 -284 247 -467 l47
-108 -16 -41 c-19 -47 -16 -62 4 -24 7 14 16 25 20 25 11 0 48 -128 61 -208
12 -84 2 -192 -37 -362 -56 -252 -104 -351 -234 -480 -113 -112 -135 -140
-186 -240 -63 -122 -107 -159 -424 -360 -111 -70 -149 -90 -321 -163 -85 -36
-177 -79 -205 -94 -60 -33 -384 -263 -438 -311 -34 -31 -43 -34 -82 -29 l-44
5 0 -39 c0 -35 -3 -40 -37 -55 -49 -21 -156 -21 -188 0 -13 9 -68 58 -121 110
-106 105 -121 113 -314 181 -212 75 -227 83 -336 198 -120 126 -334 374 -334
387 0 14 149 170 260 273 128 118 228 191 327 239 l81 40 248 -121 c181 -89
257 -121 284 -121 29 0 41 -6 54 -25 16 -25 46 -25 46 0 0 15 24 26 43 20 6
-3 19 -1 27 4 12 8 11 13 -5 31 -22 25 -12 39 35 49 27 5 34 13 49 57 37 109
149 248 279 346 96 72 296 198 315 198 18 0 157 73 174 92 13 15 19 46 24 136
7 115 33 233 65 294 9 17 34 50 56 74 37 40 46 74 19 74 -19 0 -82 -76 -111
-135 -47 -94 -87 -275 -77 -348 3 -22 1 -49 -4 -60 -6 -10 -70 -47 -142 -81
-140 -67 -266 -146 -386 -242 -83 -67 -206 -222 -241 -306 -18 -43 -30 -57
-64 -73 -31 -15 -42 -27 -44 -46 -3 -29 -30 -43 -53 -28 -8 5 -31 9 -51 9 -43
0 -448 195 -448 216 0 6 24 48 54 93 41 62 55 93 59 133 4 28 18 75 32 103 23
48 128 175 144 175 4 0 15 -15 24 -32 17 -33 17 -33 16 67 -2 145 -2 146 21
105 10 -19 33 -70 51 -113 17 -42 35 -79 39 -82 4 -2 5 38 2 89 -7 140 1 176
53 233 39 43 210 161 220 152 2 -2 -3 -31 -11 -64 -15 -65 -19 -185 -6 -185 5
0 19 25 31 55 31 73 112 147 232 209 52 27 106 57 121 68 46 32 50 26 48 -84
-1 -57 -1 -110 -1 -118 1 -8 20 31 42 88 24 59 48 106 58 109 27 11 163 103
218 150 90 76 195 236 233 358 7 22 16 44 20 48 3 4 53 -53 109 -127 56 -75
106 -138 112 -141 5 -4 -2 20 -17 52 -53 119 -74 184 -74 234 0 121 79 165
194 107z m-5048 -1 c6 -6 114 -302 114 -312 0 -1 -12 0 -27 3 -35 5 -76 63
-137 194 -53 113 -52 133 6 125 22 -3 42 -7 44 -10z m874 -32 c0 -3 -9 -22
-20 -42 -10 -20 -25 -61 -31 -90 -9 -37 -21 -61 -38 -75 l-26 -20 -3 21 c-5
33 48 163 77 188 25 22 41 29 41 18z m-157 -142 c-5 -88 -8 -102 -24 -106 -23
-6 -23 -5 -3 108 15 85 22 110 29 103 2 -2 1 -49 -2 -105z m-514 61 c18 -23
21 -40 20 -118 -1 -85 -2 -89 -14 -61 -7 17 -21 66 -30 109 -9 44 -18 83 -21
88 -13 21 27 5 45 -18z m436 -79 c-8 -44 -15 -85 -15 -92 0 -11 -57 -29 -66
-21 -2 3 0 27 5 54 6 30 6 53 0 59 -5 5 -9 23 -9 40 0 25 6 33 38 46 57 25 64
12 47 -86z m2561 23 c-90 -154 -114 -262 -96 -433 7 -63 16 -113 20 -110 4 2
10 47 14 99 3 52 10 106 15 118 8 21 9 20 14 -12 4 -19 9 -67 12 -106 3 -39
16 -122 29 -185 l24 -114 -48 -50 c-60 -61 -146 -197 -210 -330 -32 -65 -63
-114 -90 -140 -23 -22 -53 -57 -67 -78 -18 -28 -29 -37 -42 -32 -10 3 -41 -3
-69 -14 -46 -18 -55 -19 -89 -7 -38 13 -38 14 -36 62 3 43 51 303 59 312 1 2
40 -22 86 -52 45 -31 88 -56 95 -56 33 0 5 30 -80 85 l-93 60 1 210 0 210 42
85 c66 132 155 263 227 333 57 56 66 69 66 101 0 33 2 36 28 36 16 0 71 18
123 39 52 22 97 40 101 40 4 1 -12 -32 -36 -71z m-3324 14 c9 -4 44 -37 78
-74 59 -65 60 -67 28 -56 -18 6 -54 30 -79 53 -25 23 -55 48 -67 54 -12 6 -22
16 -22 21 0 11 36 12 62 2z m615 -33 c34 -21 35 -23 28 -68 -9 -60 -10 -61
-56 -61 l-39 0 0 63 c0 54 11 87 28 87 3 0 20 -10 39 -21z m353 -26 c0 -8 -14
-28 -31 -44 -128 -120 -775 -136 -909 -22 -17 13 -30 30 -30 36 0 7 8 2 18 -9
24 -30 67 -50 153 -71 102 -24 437 -25 555 -1 155 32 244 81 227 125 -4 11 -2
14 5 9 7 -4 12 -14 12 -23z m405 -94 c81 -14 172 -59 234 -115 82 -74 141
-220 141 -352 0 -30 -5 -35 -52 -57 -101 -46 -210 -59 -473 -60 -221 0 -246 2
-311 22 -38 12 -90 36 -113 54 l-43 31 4 86 c8 155 83 269 225 340 126 64 232
78 388 51z m-435 -3 c0 -7 -25 -33 -55 -56 -108 -84 -166 -197 -167 -329 0
-75 -1 -76 -32 -91 -17 -8 -35 -25 -41 -37 -5 -12 -21 -25 -35 -28 -73 -18
-92 -68 -40 -107 17 -12 30 -26 30 -31 0 -6 -49 -8 -132 -4 -127 6 -223 24
-277 50 -26 13 -28 20 -60 202 -7 39 -16 90 -21 115 -5 25 -14 74 -20 110 -6
36 -16 84 -21 107 -18 83 -18 84 52 63 103 -32 307 -45 456 -31 127 12 266 40
326 66 40 18 37 18 37 1z m3633 -136 c-47 -75 -208 -248 -172 -185 34 60 75
113 143 183 33 34 62 62 63 62 2 0 -14 -27 -34 -60z m-2744 -389 c25 -19 21
-41 -7 -41 -9 0 -26 7 -36 15 -16 12 -17 17 -6 30 16 19 20 19 49 -4z m-1131
-86 c50 -33 168 -72 271 -90 109 -19 295 -20 349 -1 31 11 56 13 104 6 35 -5
88 -10 119 -10 l56 0 -5 -30 c-5 -33 -13 -37 -31 -16 -18 22 -63 34 -89 25
-13 -5 -29 -24 -37 -43 -23 -54 -56 -53 -113 3 -39 40 -61 39 -112 -4 -33 -28
-45 -33 -60 -25 -11 6 -22 15 -25 20 -3 6 -31 10 -61 10 -46 0 -59 -4 -78 -25
-26 -27 -46 -33 -46 -12 0 8 -9 22 -20 32 -16 14 -29 16 -74 11 -34 -5 -56 -3
-61 3 -4 8 -12 8 -26 1 -25 -14 -39 -5 -39 26 0 19 -8 28 -35 40 -22 9 -32 19
-29 28 3 8 -9 22 -32 35 -30 18 -35 24 -23 32 24 15 58 10 97 -16z m319 -21
c-3 -3 -12 -4 -19 -1 -8 3 -5 6 6 6 11 1 17 -2 13 -5z m2383 -104 l28 -84 -63
-69 c-78 -86 -124 -169 -131 -239 -5 -40 -17 -70 -49 -118 -23 -36 -50 -78
-59 -93 -9 -15 -21 -25 -26 -22 -10 6 -8 19 14 67 9 21 16 44 16 53 0 20 -36
55 -56 55 -18 0 -78 -56 -86 -80 -4 -13 -7 -13 -21 -1 -15 12 -15 16 -1 42 8
16 41 57 74 91 34 36 66 81 76 108 9 25 30 68 45 95 l29 50 0 -36 c0 -48 28
-75 66 -62 79 26 92 153 16 153 -14 0 -37 -10 -50 -22 -25 -23 -24 -22 4 30
37 67 123 174 136 170 5 -2 23 -42 38 -88z m-1640 40 c0 -5 -4 -10 -10 -10 -5
0 -10 5 -10 10 0 6 5 10 10 10 6 0 10 -4 10 -10z m-30 -84 c0 -32 -3 -35 -70
-65 -39 -17 -113 -42 -164 -56 -102 -26 -284 -44 -254 -25 10 6 31 12 47 13
16 1 28 4 26 7 -4 6 16 15 125 56 41 15 81 32 88 37 8 7 17 6 24 -1 8 -8 20
-7 44 3 18 7 35 10 39 7 4 -4 6 -2 5 3 -5 23 2 34 28 43 51 19 62 15 62 -22z
m-423 -35 l22 -28 -68 -28 -68 -27 -84 43 c-81 42 -83 44 -50 47 23 2 40 -3
55 -17 31 -30 70 -26 108 9 41 36 57 37 85 1z m-407 -22 c0 -21 56 -41 81 -28
19 10 61 0 53 -12 -3 -5 2 -6 10 -3 10 4 14 0 13 -15 -2 -28 -27 -27 -129 5
-102 32 -191 76 -165 82 10 2 31 -1 47 -7 21 -7 30 -7 30 1 0 6 6 6 16 -2 8
-8 14 -9 13 -4 -4 21 2 26 16 14 8 -7 15 -21 15 -31z m978 -14 c58 -31 70 -42
60 -52 -7 -7 -130 -100 -272 -207 l-259 -194 -76 28 c-42 15 -220 82 -396 148
-176 66 -337 126 -357 133 -21 7 -38 16 -38 19 0 4 33 35 73 69 l72 62 6 -46
c6 -54 22 -70 114 -114 123 -60 210 -76 415 -76 162 0 195 3 270 23 141 39
277 124 281 177 1 8 3 20 4 25 1 6 3 19 4 31 1 25 8 24 99 -26z m-1081 -40
c166 -79 377 -110 570 -85 80 11 239 53 283 75 85 42 88 16 5 -39 -210 -140
-688 -137 -884 4 -24 18 -41 38 -41 50 0 25 2 25 67 -5z m302 -13 c8 -2 26
-10 40 -17 25 -14 24 -14 -19 -8 -25 3 -48 11 -52 17 -8 12 2 32 11 20 3 -5
12 -10 20 -12z m1489 -338 c65 -26 119 -48 120 -50 2 -1 -20 -15 -50 -30 -159
-80 -322 -218 -396 -334 l-38 -60 -143 144 -143 144 73 23 c41 13 80 23 87 23
6 -1 12 3 12 8 0 6 7 7 16 4 8 -3 12 -2 9 4 -3 6 1 10 10 10 8 0 23 4 33 9 60
32 101 49 106 44 3 -4 6 -2 6 4 0 14 49 35 62 27 7 -4 8 -2 4 4 -4 7 11 20 39
33 25 12 48 25 51 30 9 14 20 11 142 -37z m351 -53 c25 -16 63 -33 85 -37 l38
-7 -80 -37 c-96 -45 -146 -79 -267 -176 -91 -74 -309 -290 -356 -354 l-26 -34
-21 46 c-11 25 -34 56 -51 69 l-30 22 35 67 c91 173 277 325 529 431 49 21 92
39 94 39 2 0 25 -13 50 -29z"/>
<path d="M5610 5111 c0 -8 -8 -10 -22 -7 -13 3 -17 3 -10 0 19 -9 14 -27 -5
-20 -15 5 -15 4 1 -9 11 -8 15 -15 10 -15 -6 0 -16 -11 -22 -25 -11 -23 -10
-25 7 -16 10 6 21 8 25 6 3 -3 2 0 -4 7 -6 8 -6 16 1 25 7 7 8 13 4 13 -5 0 0
9 10 20 10 11 15 23 12 27 -4 3 -7 1 -7 -6z"/>
<path d="M3989 5133 c-11 -15 -11 -16 1 -5 15 13 34 17 27 5 -3 -5 1 -13 8
-20 10 -10 16 -9 26 3 10 12 9 13 -6 8 -12 -5 -16 -4 -12 3 4 6 0 14 -9 17
-21 8 -20 8 -35 -11z"/>
<path d="M3986 5098 c3 -5 10 -6 15 -3 13 9 11 12 -6 12 -8 0 -12 -4 -9 -9z"/>
<path d="M4055 5091 c-3 -5 -2 -12 3 -15 5 -3 9 1 9 9 0 17 -3 19 -12 6z"/>
<path d="M4005 5080 c-3 -5 -1 -10 4 -10 6 0 11 5 11 10 0 6 -2 10 -4 10 -3 0
-8 -4 -11 -10z"/>
<path d="M4238 4614 c-28 -15 -64 -71 -54 -82 4 -3 21 9 40 27 44 43 86 45
126 6 32 -31 39 -21 15 24 -21 42 -77 53 -127 25z"/>
<path d="M4831 4539 c-30 -5 -78 -21 -105 -34 l-51 -25 55 5 c70 7 201 45 194
56 -6 10 -19 10 -93 -2z"/>
<path d="M4312 4522 c-20 -6 -13 -19 12 -26 13 -3 26 -12 29 -20 4 -10 1 -13
-9 -9 -7 3 -14 8 -14 12 0 4 -20 8 -44 10 -36 1 -49 -3 -70 -24 -29 -29 -33
-40 -11 -31 8 3 15 1 15 -4 0 -5 14 -7 31 -3 28 5 30 4 27 -18 -2 -18 -9 -24
-25 -23 -29 1 -29 -11 -1 -30 31 -22 70 -20 101 4 16 13 28 16 32 10 23 -37
27 47 6 111 -9 29 -18 38 -40 41 -15 2 -33 2 -39 0z"/>
<path d="M4580 4476 c0 -8 4 -26 10 -40 8 -21 16 -26 44 -26 41 0 56 16 24 26
-12 4 -31 17 -41 30 -21 27 -37 31 -37 10z"/>
<path d="M4804 4475 c-37 -16 -76 -53 -69 -65 4 -6 18 -3 33 6 21 13 20 11 -5
-10 -18 -15 -33 -36 -33 -47 0 -25 6 -24 42 6 35 29 63 29 63 0 0 -13 -8 -21
-23 -23 -23 -3 -23 -4 -6 -23 16 -17 16 -19 1 -19 -10 0 -17 -4 -17 -9 0 -18
89 -24 127 -10 47 18 54 37 12 31 l-31 -5 17 27 c11 16 15 35 11 51 -6 22 -3
25 21 26 58 1 -17 19 -85 20 -42 1 -60 4 -51 10 8 5 42 6 77 3 64 -7 76 -2 43
15 -39 22 -98 29 -127 16z"/>
<path d="M4180 4347 c0 -27 40 -50 94 -55 70 -6 83 14 16 23 -27 4 -61 15 -74
26 -29 23 -36 24 -36 6z"/>
<path d="M3676 1741 c-6 -9 25 -36 134 -118 68 -52 155 -93 203 -96 44 -3 51
15 11 27 -91 28 -128 48 -223 118 -108 80 -116 84 -125 69z"/>
<path d="M1705 2890 c5 -15 4 -20 -4 -16 -6 4 -11 0 -11 -10 0 -15 2 -15 23
-1 27 18 29 40 4 45 -15 3 -18 0 -12 -18z"/>
<path d="M1837 2884 c-7 -7 14 -44 25 -44 5 0 8 11 8 25 0 23 -18 34 -33 19z"/>
<path d="M1430 2835 c0 -33 25 -33 26 0 1 15 -3 25 -12 25 -8 0 -14 -10 -14
-25z"/>
<path d="M1534 2845 c-6 -15 2 -35 15 -35 5 0 11 11 13 25 6 28 -18 36 -28 10z"/>
<path d="M1340 2827 c0 -7 9 -13 20 -13 11 0 20 6 20 13 0 7 -9 13 -20 13 -11
0 -20 -6 -20 -13z"/>
<path d="M1622 2819 c2 -15 -2 -23 -9 -21 -7 1 -13 -7 -13 -18 0 -25 12 -25
34 -1 20 22 18 52 -2 59 -9 3 -13 -3 -10 -19z"/>
<path d="M1194 2775 c-8 -21 4 -67 16 -60 13 8 13 75 0 75 -6 0 -13 -7 -16
-15z"/>
<path d="M1940 2750 c0 -43 23 -57 33 -20 7 28 -3 60 -19 60 -10 0 -14 -13
-14 -40z"/>
<path d="M1767 2753 c-13 -13 -7 -32 8 -27 9 4 15 1 15 -7 0 -9 3 -10 10 -3 6
6 8 18 4 27 -6 17 -25 22 -37 10z"/>
<path d="M1256 2661 c-11 -18 6 -41 31 -41 15 0 23 5 20 13 -2 6 -10 11 -16
10 -6 -2 -11 4 -11 12 0 17 -16 20 -24 6z"/>
<path d="M1680 2657 c0 -8 9 -25 20 -38 l20 -24 -2 35 c-2 24 -8 36 -20 38
-11 2 -18 -3 -18 -11z"/>
<path d="M1885 2650 c4 -11 2 -20 -4 -20 -6 0 -11 5 -11 12 0 9 -3 9 -12 0
-17 -17 4 -36 31 -27 25 8 30 55 5 55 -11 0 -14 -6 -9 -20z"/>
<path d="M1577 2633 c-12 -11 -8 -23 7 -23 9 0 12 -7 9 -20 -4 -14 0 -20 11
-20 17 0 19 11 10 48 -6 21 -24 29 -37 15z"/>
<path d="M1420 2615 c0 -8 9 -15 20 -15 11 0 20 7 20 15 0 8 -9 15 -20 15 -11
0 -20 -7 -20 -15z"/>
<path d="M1150 2583 c0 -10 4 -24 9 -32 6 -9 10 -4 13 18 3 21 0 31 -9 31 -7
0 -13 -8 -13 -17z"/>
<path d="M1991 2563 c-18 -20 -4 -31 15 -11 9 9 12 18 7 21 -4 3 -14 -2 -22
-10z"/>
<path d="M1316 2544 c-3 -9 -4 -20 0 -25 6 -10 34 14 34 30 0 17 -27 13 -34
-5z"/>
<path d="M1810 2553 c0 -5 6 -15 12 -21 10 -10 10 -15 -2 -22 -12 -7 -12 -12
-2 -22 17 -17 33 6 30 42 -3 23 -38 44 -38 23z"/>
<path d="M1496 2523 c-7 -19 20 -46 39 -40 17 6 11 32 -7 29 -12 -2 -16 2 -12
13 3 8 2 15 -4 15 -5 0 -13 -8 -16 -17z"/>
<path d="M2705 1729 c-3 -4 2 -6 10 -5 21 3 28 13 10 13 -9 0 -18 -4 -20 -8z"/>
<path d="M2635 1689 c-4 -6 -4 -13 -1 -16 3 -4 6 -1 6 6 0 7 5 9 12 5 7 -4 8
-3 4 4 -9 15 -13 15 -21 1z"/>
<path d="M2390 1575 c-9 -10 -9 -15 -1 -15 6 0 11 5 11 11 0 5 5 7 12 3 7 -4
8 -3 4 4 -9 15 -11 15 -26 -3z"/>
<path d="M2298 1543 c7 -3 16 -2 19 1 4 3 -2 6 -13 5 -11 0 -14 -3 -6 -6z"/>
</g>
</svg>
